<svg width="115" height="18" fill="none" xmlns="http://www.w3.org/2000/svg"><path d="M60 3V1H49v16h3v-7h62V8H52V3h8Z" fill="#fff"/><path d="M97 0v16h6c5 0 8-3 8-8 0-6-3-8-7-8h-7Zm3 3h3c3 0 5 1 5 5 0 5-2 6-6 6h-2V3Z" fill="#fff"/><path d="M78 9c0 4 3 8 8 8 6 0 8-5 8-9s-3-8-8-8-8 4-8 9Zm3-1c0-3 2-5 5-5s5 3 5 6-3 5-5 5c-4 0-5-3-5-6ZM62 9c0 4 3 8 7 8 6 0 8-5 8-9s-3-8-8-8c-4 0-7 4-7 9Zm3-1c0-3 2-5 4-5 4 0 5 3 5 6s-2 5-4 5c-4 0-5-3-5-6Z" fill="#FFD25E"/><path d="M14 17 9 1H5L0 17h3l1-3h6l1 3h3Zm-5-6H5l2-7 2 7ZM30 17V1h-3l1 11-8-11h-2v16h3L20 6l8 11h2ZM46 1h-3l-4 6-3-6h-4l6 10v6h3v-6l5-10Z" fill="#fff"/><ellipse cx="69.5" cy="8.5" rx="5.5" ry="6.5" fill="#FFD25D"/><ellipse cx="85.5" cy="8.5" rx="5.5" ry="6.5" fill="#FFD25D"/></svg>